<?xml version="1.0" standalone="no"?>
<!DOCTYPE svg PUBLIC "-//W3C//DTD SVG 20010904//EN"
 "http://www.w3.org/TR/2001/REC-SVG-20010904/DTD/svg10.dtd">
<svg version="1.0" xmlns="http://www.w3.org/2000/svg"
 width="186.000000pt" height="112.000000pt" viewBox="0 0 186.000000 112.000000"
 preserveAspectRatio="xMidYMid meet">
<metadata>
UrlBit logo
</metadata>
<g transform="translate(0.000000,112.000000) scale(0.100000,-0.100000)"
fill="#000000" stroke="none">
<path d="M717 1095 c-21 -12 -63 -46 -92 -75 -222 -220 -128 -611 170 -705 88
-27 241 -18 319 20 69 34 164 122 194 181 89 175 58 379 -80 510 -68 65 -120
94 -166 93 -33 -1 -34 -2 -12 -8 202 -62 330 -286 276 -486 -31 -117 -113
-217 -222 -270 -55 -27 -67 -29 -174 -30 -107 0 -119 2 -175 29 -107 53 -190
154 -221 271 -54 200 74 424 276 486 21 6 19 7 -15 7 -24 0 -56 -9 -78 -23z"/>
<path d="M819 1066 c-96 -37 -173 -106 -217 -196 -24 -49 -27 -66 -25 -145 3
-187 13 -216 59 -179 18 14 18 15 -5 4 -23 -12 -40 -2 -41 22 0 11 39 30 115
54 l70 22 3 113 c1 62 8 119 14 126 14 18 258 19 276 1 14 -14 16 -124 2 -133
-5 -3 -10 -18 -9 -33 0 -24 1 -25 8 -7 5 11 7 23 4 27 -2 4 30 32 70 62 113
83 111 82 85 119 -35 50 -84 92 -146 123 -48 24 -71 29 -142 31 -53 2 -98 -3
-121 -11z m257 -44 c55 -28 134 -99 134 -122 0 -14 -91 -81 -101 -74 -5 3 -9
16 -9 30 0 13 -9 33 -20 44 -18 18 -33 20 -150 20 -169 0 -170 -1 -170 -134 0
-63 -4 -97 -12 -103 -7 -6 -41 -19 -74 -31 -77 -25 -84 -19 -84 65 0 145 102
283 245 330 67 22 170 11 241 -25z"/>
<path d="M1219 823 c-57 -45 -62 -51 -19 -25 20 11 48 27 63 35 19 10 23 16
14 20 -8 3 -34 -11 -58 -30z"/>
<path d="M836 725 c-4 -68 -5 -129 -1 -135 3 -6 45 -10 96 -10 l89 0 0 135 0
135 -89 0 -88 0 -7 -125z m119 96 c3 -5 1 -13 -5 -16 -15 -9 -43 3 -35 15 8
13 32 13 40 1z m-35 -46 c0 -8 -4 -15 -10 -15 -11 0 -14 -49 -4 -74 3 -9 15
-16 25 -16 23 0 34 37 25 85 -7 34 -6 35 24 35 20 0 30 -5 30 -15 0 -8 -4 -15
-9 -15 -6 0 -11 -24 -13 -52 -3 -46 -7 -55 -30 -66 -21 -10 -32 -10 -52 0 -27
12 -31 21 -40 101 -6 47 -5 47 24 47 20 0 30 -5 30 -15z"/>
<path d="M1273 781 c-12 -10 -60 -33 -107 -51 l-86 -34 0 -71 c0 -42 -5 -76
-12 -83 -17 -17 -259 -17 -276 0 -7 7 -12 22 -12 35 0 13 -2 23 -4 23 -10 0
-136 -83 -136 -89 0 -17 90 -92 140 -117 48 -24 67 -28 145 -28 77 0 99 4 150
28 65 30 112 69 154 131 41 59 54 100 60 193 3 45 6 82 6 82 0 -1 -10 -9 -22
-19z m-9 -102 c-1 -54 -47 -143 -101 -197 -115 -115 -298 -128 -433 -32 -52
37 -55 55 -15 80 l34 21 28 -20 c20 -14 47 -20 98 -22 200 -8 225 3 225 95 0
60 0 60 75 93 71 31 90 27 89 -18z"/>
<path d="M861 227 c-6 -6 -11 -21 -11 -34 0 -21 -4 -23 -53 -23 -29 0 -58 -5
-65 -12 -8 -8 -15 -8 -24 -1 -7 6 -45 11 -85 11 -86 0 -103 -12 -86 -61 6 -18
14 -49 18 -69 4 -24 11 -38 21 -38 11 0 12 4 4 19 -5 11 -10 36 -10 55 0 20
-4 36 -10 36 -5 0 -10 9 -10 20 0 16 7 20 30 20 29 0 30 -1 30 -47 0 -56 10
-76 33 -67 19 7 25 74 7 74 -5 0 -10 9 -10 20 0 16 7 20 30 20 30 0 30 0 30
-60 0 -33 4 -60 10 -60 6 0 10 -7 10 -15 0 -8 5 -15 10 -15 6 0 10 7 10 15 0
8 5 15 10 15 6 0 10 18 10 40 0 22 -4 40 -10 40 -5 0 -10 9 -10 20 0 18 7 20
55 20 48 0 55 -3 55 -19 0 -13 -8 -21 -22 -23 -19 -2 -24 -10 -26 -40 -2 -22
1 -38 7 -38 6 0 11 -7 11 -15 0 -9 9 -15 25 -15 16 0 25 6 25 15 0 8 5 15 10
15 6 0 10 32 10 75 0 43 -4 75 -10 75 -5 0 -10 9 -10 20 0 16 7 20 30 20 l30
0 0 -87 c0 -101 7 -133 26 -133 11 0 14 20 14 90 0 53 -4 90 -10 90 -5 0 -10
9 -10 20 0 16 7 20 30 20 28 0 30 -3 30 -35 0 -33 2 -35 33 -35 20 0 41 -8 50
-18 22 -24 22 -95 1 -116 -14 -15 -14 -16 5 -16 12 0 21 6 21 15 0 8 5 15 10
15 6 0 10 18 10 40 0 22 -4 40 -10 40 -5 0 -10 9 -10 20 0 16 7 20 30 20 30 0
30 0 30 -60 0 -33 4 -60 10 -60 6 0 10 -7 10 -15 0 -8 8 -15 18 -15 14 0 17 8
14 55 -2 30 -8 55 -13 55 -5 0 -9 9 -9 20 0 11 4 20 9 20 5 0 11 9 14 20 3 11
12 20 21 20 9 0 16 -8 16 -20 0 -11 7 -20 15 -20 8 0 15 -9 15 -20 0 -11 -7
-20 -15 -20 -11 0 -15 -11 -15 -40 0 -28 4 -40 15 -40 7 0 18 -8 24 -17 5 -10
12 -15 16 -11 4 3 -3 20 -16 37 -21 28 -21 31 -5 55 22 34 20 45 -13 86 -26
31 -31 33 -54 23 -21 -10 -28 -9 -43 8 -29 32 -74 18 -74 -22 0 -26 -12 -30
-53 -18 -26 7 -37 16 -37 28 0 10 -6 23 -12 29 -18 14 -143 13 -157 -1z m325
-28 c8 -14 -21 -43 -35 -35 -19 12 -13 46 8 46 11 0 23 -5 27 -11z m-323 -146
c-5 -15 -14 -28 -19 -28 -14 0 -17 45 -3 61 19 23 33 1 22 -33z"/>
<path d="M1010 75 c0 -23 6 -38 15 -41 23 -9 46 16 43 45 -2 20 -9 27 -30 29
-26 3 -28 1 -28 -33z"/>
</g>
</svg>
